<svg width="126" height="19" viewBox="0 0 126 19" fill="none" xmlns="http://www.w3.org/2000/svg">
<g id="Logo">
<path d="M87.2169 0.00409563H87.2209L87.2169 0V0.00409563Z" fill="#8D8D8D"/>
<path fill-rule="evenodd" clip-rule="evenodd" d="M87.2169 0.00409563H84.3101V5.50735C82.9685 4.5458 81.5271 4.07118 80.0217 4.07935C78.0333 4.09573 76.1965 4.91406 74.8509 6.37887C73.5932 7.75366 72.8704 9.60306 72.8704 11.4484C72.8704 15.0818 75.6016 18.842 80.1695 18.842C82.0262 18.842 83.7711 18.1219 85.0887 16.8166C86.4703 15.4459 87.2329 13.5474 87.2329 11.4566L87.2169 0.00409563ZM75.7813 11.4607C75.7813 13.887 77.7018 15.8592 80.0616 15.8592C82.4215 15.8592 84.342 13.887 84.342 11.4607C84.342 9.03434 82.4215 7.06217 80.0616 7.06217C77.7018 7.06217 75.7813 9.03434 75.7813 11.4607Z" fill="#8D8D8D"/>
<path d="M20.5813 9.83584L20.5833 9.83629H20.5793L20.5975 9.84063C23.082 10.4414 26.1612 11.1859 26.0656 14.288C25.9817 17.0949 23.6419 18.842 19.9604 18.842C17.6006 18.842 15.8717 18.0891 14.8216 16.5957C14.0469 15.4991 13.8912 14.3453 13.8593 13.9279H16.5864C16.6783 14.4312 17.2053 16.3338 19.9604 16.3338C21.877 16.3338 23.1668 15.5155 23.1668 14.2921C23.1668 13.441 22.2604 12.95 19.7009 12.4263C15.7958 11.4852 14.6659 10.5646 14.6659 8.33057C14.6659 5.78148 16.7741 4.06709 19.9125 4.06709H19.9604C24.2608 4.09164 25.283 7.36904 25.4706 8.20782H22.8752C22.8752 8.20782 22.452 7.72092 22.3083 7.56134C21.7293 6.92304 20.8589 6.57526 19.9604 6.57526C18.531 6.57526 17.5687 7.20537 17.5687 8.15872C17.5687 9.11168 18.965 9.44735 20.5813 9.83584Z" fill="#8D8D8D"/>
<path fill-rule="evenodd" clip-rule="evenodd" d="M49.8114 4.06709C54.0998 4.10392 55.9405 7.52453 56.2639 8.21192H56.26C56.8668 9.48441 57.1024 10.9533 56.9347 12.3486L56.9267 12.4181H45.6228C46.0541 14.4148 47.803 15.8592 49.8034 15.8592H49.8992C51.4565 15.8592 52.858 14.9795 53.6087 13.6497C53.6206 13.6333 53.6246 13.6211 53.6246 13.6211H56.6672L56.6552 13.6824C56.5993 13.9525 56.1841 15.1922 55.1579 16.3788C54.2235 17.459 52.5385 18.7683 49.8074 18.842H49.6796C48.5696 18.842 47.2479 18.4656 46.1938 17.8395C44.0297 16.5589 42.5962 13.9893 42.6282 11.4443C42.6561 9.12844 43.6902 6.95169 45.3912 5.6301C47.0763 4.32077 48.7213 4.06709 49.8114 4.06709ZM49.8114 7.05398C48.1783 7.05398 46.677 8.0196 45.9622 9.52125H53.6606C52.9418 8.0196 51.4445 7.05398 49.8114 7.05398Z" fill="#8D8D8D"/>
<path d="M58.6477 9.76673C58.6477 6.51797 61.3549 4.06709 64.9365 4.06709C68.5181 4.06709 71.2253 6.51797 71.2253 9.76673V18.8338H68.2986L68.2946 10.6342C68.2946 8.17508 66.5537 7.05398 64.9365 7.05398C63.3194 7.05398 61.5785 8.17508 61.5785 10.6342L61.5745 18.8338H58.6477V9.76673Z" fill="#8D8D8D"/>
<path d="M95.5781 18.8379C99.1597 18.8379 101.867 16.387 101.867 13.1382V4.06709H98.9401L98.9361 12.2667C98.9361 14.7258 97.1952 15.8469 95.5781 15.8469C93.9609 15.8469 92.22 14.7258 92.22 12.2667L92.216 4.06709H89.2892V13.1341C89.2892 16.3829 91.9964 18.8338 95.5781 18.8338V18.8379Z" fill="#8D8D8D"/>
<path d="M119.751 4.06709C117.783 4.06709 116.086 4.81996 114.96 6.03926C113.834 4.81996 112.133 4.06709 110.168 4.06709C106.61 4.06709 103.923 6.51797 103.923 9.76673V18.8338H106.83L106.834 10.6342C106.834 8.17508 108.563 7.05398 110.168 7.05398C111.773 7.05398 113.502 8.17508 113.502 10.6342L113.506 18.8338H116.417L116.421 10.6342C116.421 8.17508 118.15 7.05398 119.755 7.05398C121.36 7.05398 123.089 8.17508 123.089 10.6342L123.093 18.8338H126V9.76673C126 6.51797 123.313 4.06709 119.755 4.06709H119.751Z" fill="#8D8D8D"/>
<path d="M38.3279 12.7536L38.3438 12.7045L41.3385 12.6882L41.3265 12.7496L41.3025 12.8887C41.2931 12.9417 41.2795 12.9933 41.2659 13.0452C41.2564 13.0812 41.2468 13.1179 41.2386 13.1546C41.2313 13.1862 41.2243 13.2177 41.2173 13.2492C41.2016 13.3196 41.1861 13.3895 41.1668 13.4574C41.1473 13.5285 41.124 13.5977 41.1009 13.6662L41.1005 13.6676C41.0905 13.6971 41.0805 13.7266 41.071 13.7561L41.07 13.7591C41.0344 13.8685 40.9987 13.978 40.9592 14.0834C40.9312 14.1571 40.8993 14.2307 40.8673 14.3044L40.8253 14.4033C40.7846 14.4997 40.7443 14.5943 40.6996 14.689C40.6897 14.7092 40.6789 14.7295 40.668 14.7497C40.657 14.7702 40.6457 14.7913 40.6357 14.8117C40.5959 14.8934 40.5549 14.974 40.5123 15.0534C40.4737 15.1252 40.4338 15.196 40.3922 15.2659C40.3882 15.27 40.3842 15.2741 40.3842 15.2782C39.2103 17.2463 37.1779 18.5842 34.85 18.7929C34.6384 18.8134 34.4268 18.8215 34.2111 18.8215C33.4645 18.8215 32.7418 18.707 32.063 18.4901C29.1202 17.5531 26.976 14.7463 26.976 11.4361C26.976 9.65218 27.5949 8.01553 28.6291 6.73894C28.7768 6.55891 28.9325 6.38297 29.0963 6.2152C29.4237 5.87968 29.783 5.5769 30.1663 5.31096C30.937 4.77903 31.8114 4.39441 32.7537 4.19802C33.2249 4.09983 33.712 4.04663 34.2111 4.04663C34.4268 4.04663 34.6384 4.05483 34.85 4.07528H34.874C36.9822 4.27167 38.8469 5.39687 40.0488 7.07446C40.0528 7.07853 40.0568 7.08672 40.0568 7.08672C40.1686 7.2422 40.2764 7.40588 40.3762 7.57362C40.3818 7.58361 40.3873 7.59413 40.3931 7.60494C40.4038 7.62504 40.4152 7.64652 40.4281 7.66772C40.512 7.81095 40.5918 7.95414 40.6637 8.10144C40.6775 8.12982 40.6904 8.15922 40.7033 8.18861L40.71 8.20406L40.7181 8.22236C40.7264 8.24094 40.7348 8.25937 40.7435 8.2774C40.7543 8.30176 40.765 8.32598 40.7757 8.35013C40.8208 8.45166 40.8653 8.55217 40.9072 8.65792C40.9392 8.73973 40.9672 8.82157 40.9951 8.90341C41.0161 8.96167 41.0372 9.02106 41.0577 9.08099C41.076 9.13471 41.0939 9.18885 41.1109 9.24302L41.1119 9.24654C41.1395 9.34356 41.1671 9.44058 41.1907 9.5376C41.1976 9.56727 41.2058 9.59622 41.2143 9.62504C41.2257 9.66377 41.2375 9.7023 41.2466 9.74219C41.2492 9.74741 41.2485 9.75096 41.2477 9.75496C41.2472 9.75721 41.2466 9.75974 41.2466 9.76264C41.2546 9.79949 41.2636 9.83633 41.2726 9.87317C41.2816 9.90999 41.2906 9.94679 41.2985 9.9836L41.3105 10.045H38.2999L38.2879 10.0122L38.2869 10.0074L38.2844 10.0027C38.2824 9.99963 38.2799 9.9959 38.2799 9.99179C37.6929 8.26511 36.0918 7.02126 34.2071 7.02126C31.8753 7.02126 29.9787 8.91976 29.8988 11.2888C29.8948 11.3011 29.8948 11.3175 29.8948 11.3338V11.5548C29.8971 11.5618 29.8981 11.5701 29.8985 11.5791C29.8986 11.5819 29.8987 11.5849 29.8987 11.5879L29.8988 11.5998C29.9827 13.9689 31.8753 15.8674 34.2071 15.8674C36.0958 15.8674 37.6929 14.6235 38.2799 12.8968C38.2799 12.8887 38.2879 12.8764 38.2879 12.8764L38.2999 12.8437L38.3199 12.7823C38.3199 12.77 38.3279 12.7536 38.3279 12.7536Z" fill="#8D8D8D"/>
<path d="M8.7678 4.44113L7.49241 6.78049C6.81437 6.58452 5.96487 6.55482 5.22286 6.76922C4.68095 6.92581 4.19637 7.2126 3.87778 7.65994C3.76015 7.8251 3.66515 8.01216 3.59825 8.22263L0.799561 8.22263C0.882022 7.84366 1.28464 6.33643 2.68679 5.25329C2.9847 5.02316 3.32772 4.81218 3.72237 4.63523C4.44224 4.31247 5.33391 4.10293 6.43691 4.09697C7.22557 4.09697 8.01361 4.19465 8.76781 4.43702L8.7678 4.44113Z" fill="#8D8D8D"/>
<path d="M5.92939 16.2673C7.5926 16.2673 9.26781 14.9932 9.26781 12.6579V10.2448H12.1704V13.2315C12.1704 13.6427 12.1301 14.0413 12.0525 14.4239C11.5087 17.1023 9.13287 19 5.92139 19C2.31109 19 0.0973337 16.9743 0.0031251 14.3618C0.00156028 14.3184 0.000580236 14.2748 0.00018829 14.2311C-0.02755 11.0263 3.01436 9.24047 5.87341 9.43766V11.8812C4.59342 11.8812 2.86683 12.3846 2.86683 14.0304C2.86683 14.1645 2.87764 14.2907 2.89798 14.4093C3.20302 16.1881 5.65202 16.2673 5.92939 16.2673Z" fill="#8D8D8D"/>
<path d="M8.14233 8.86909C8.11152 8.83891 8.08454 8.80466 8.06245 8.76694C7.97408 8.61608 7.97408 8.42834 8.06245 8.2758L10.3632 4.34338C10.4516 4.19084 10.6164 4.09697 10.7949 4.09697C10.8226 4.09697 10.8502 4.09934 10.8772 4.10391C10.979 4.12112 11.0736 4.16969 11.1466 4.24124C11.1774 4.27141 11.2044 4.30567 11.2265 4.34339L13.5273 8.2758C13.6156 8.42666 13.6156 8.61609 13.5273 8.76694C13.4484 8.90318 13.3071 8.99261 13.1519 9.01018C13.1333 9.01228 13.1146 9.01335 13.0957 9.01335H8.49407C8.46426 9.01335 8.43474 9.01063 8.40583 9.00539C8.30623 8.98731 8.21394 8.93925 8.14233 8.86909Z" fill="#8D8D8D"/>
</g>
</svg>
