<svg width="137" height="22" viewBox="0 0 137 22" fill="none" xmlns="http://www.w3.org/2000/svg">
<g clip-path="url(#clip0_1172_1310)">
<path d="M94.8311 0.43589H94.8354L94.8311 0.431396V0.43589Z" fill="#030712"/>
<path fill-rule="evenodd" clip-rule="evenodd" d="M94.8311 0.43589H91.6705V6.47399C90.2118 5.41899 88.6445 4.89824 87.0077 4.9072C84.8457 4.92518 82.8486 5.82303 81.3855 7.43021C80.018 8.9386 79.2321 10.9677 79.2321 12.9924C79.2321 16.9789 82.2017 21.1046 87.1684 21.1046C89.1872 21.1046 91.0844 20.3144 92.5171 18.8824C94.0193 17.3785 94.8484 15.2954 94.8484 13.0014L94.8311 0.43589ZM82.3971 13.0059C82.3971 15.668 84.4853 17.8319 87.0511 17.8319C89.617 17.8319 91.7052 15.668 91.7052 13.0059C91.7052 10.3437 89.617 8.17991 87.0511 8.17991C84.4853 8.17991 82.3971 10.3437 82.3971 13.0059Z" fill="#030712"/>
<path d="M22.378 11.2231L22.3803 11.2236H22.3759L22.3956 11.2284C25.097 11.8875 28.4451 12.7044 28.3411 16.108C28.25 19.1876 25.7059 21.1046 21.703 21.1046C19.1372 21.1046 17.2573 20.2785 16.1155 18.6399C15.2733 17.4368 15.1039 16.1708 15.0692 15.7129H18.0344C18.1343 16.2651 18.7074 18.3526 21.703 18.3526C23.7869 18.3526 25.1893 17.4548 25.1893 16.1125C25.1893 15.1787 24.2037 14.64 21.4208 14.0654C17.1748 13.0328 15.9462 12.0227 15.9462 9.57158C15.9462 6.77476 18.2385 4.89375 21.6509 4.89375H21.703C26.3788 4.92068 27.4902 8.51661 27.6943 9.4369H24.8723C24.8723 9.4369 24.4121 8.90268 24.2558 8.72759C23.6263 8.02726 22.6799 7.64568 21.703 7.64568C20.1487 7.64568 19.1025 8.33702 19.1025 9.38303C19.1025 10.4286 20.6207 10.7969 22.378 11.2231Z" fill="#030712"/>
<path fill-rule="evenodd" clip-rule="evenodd" d="M54.16 4.89375C58.8228 4.93416 60.8242 8.6872 61.1759 9.4414H61.1715C61.8314 10.8376 62.0876 12.4492 61.9052 13.9801L61.8965 14.0564H49.6058C50.0747 16.2471 51.9762 17.8319 54.1513 17.8319H54.2555C55.9487 17.8319 57.4726 16.8667 58.2888 15.4076C58.3018 15.3897 58.3061 15.3762 58.3061 15.3762H61.6143L61.6013 15.4436C61.5405 15.7399 61.089 17.1001 59.9733 18.402C58.9573 19.5872 57.1252 21.0238 54.1557 21.1046H54.0167C52.8098 21.1046 51.3728 20.6915 50.2266 20.0047C47.8735 18.5996 46.3149 15.7803 46.3497 12.9879C46.38 10.447 47.5045 8.05869 49.354 6.60866C51.1861 5.17208 52.9748 4.89375 54.16 4.89375ZM54.16 8.17092C52.3844 8.17092 50.752 9.23039 49.9748 10.878H58.3452C57.5637 9.23039 55.9357 8.17092 54.16 8.17092Z" fill="#030712"/>
<path d="M63.7677 11.1473C63.7677 7.58283 66.7113 4.89375 70.6056 4.89375C74.4999 4.89375 77.4434 7.58283 77.4434 11.1473V21.0956H74.2611L74.2568 12.099C74.2568 9.40098 72.3639 8.17092 70.6056 8.17092C68.8473 8.17092 66.9544 9.40098 66.9544 12.099L66.95 21.0956H63.7677V11.1473Z" fill="#030712"/>
<path d="M103.922 21.1001C107.816 21.1001 110.76 18.411 110.76 14.8465V4.89375H107.578L107.573 13.8903C107.573 16.5883 105.68 17.8184 103.922 17.8184C102.164 17.8184 100.271 16.5883 100.271 13.8903L100.267 4.89375H97.0843V14.842C97.0843 18.4065 100.028 21.0956 103.922 21.0956V21.1001Z" fill="#030712"/>
<path d="M130.206 4.89375C128.065 4.89375 126.22 5.71979 124.996 7.05759C123.771 5.71979 121.922 4.89375 119.786 4.89375C115.918 4.89375 112.996 7.58283 112.996 11.1473V21.0956H116.157L116.161 12.099C116.161 9.40098 118.041 8.17092 119.786 8.17092C121.531 8.17092 123.411 9.40098 123.411 12.099L123.415 21.0956H126.58L126.585 12.099C126.585 9.40098 128.465 8.17092 130.21 8.17092C131.955 8.17092 133.835 9.40098 133.835 12.099L133.839 21.0956H137V11.1473C137 7.58283 134.078 4.89375 130.21 4.89375H130.206Z" fill="#030712"/>
<path d="M41.6739 14.4245L41.6913 14.3706L44.9474 14.3527L44.9343 14.42L44.9083 14.5726C44.8981 14.6309 44.8833 14.6875 44.8685 14.7444L44.8684 14.7449C44.8581 14.7843 44.8477 14.8241 44.8388 14.8645C44.8308 14.8991 44.8232 14.9337 44.8156 14.9682C44.7986 15.0455 44.7817 15.1222 44.7607 15.1967C44.7396 15.2747 44.7142 15.3506 44.6891 15.4258L44.6886 15.4273C44.6777 15.4597 44.6669 15.492 44.6565 15.5244L44.6555 15.5276C44.6167 15.6478 44.578 15.7679 44.535 15.8835C44.5045 15.9643 44.4698 16.0451 44.4351 16.126L44.3894 16.2345C44.3451 16.3403 44.3014 16.4441 44.2528 16.5479C44.242 16.5701 44.2302 16.5924 44.2184 16.6146L44.218 16.6153C44.2061 16.6377 44.1941 16.6602 44.1833 16.6826C44.14 16.7722 44.0954 16.8606 44.049 16.9478C44.0072 17.0265 43.9638 17.1042 43.9184 17.1809C43.9141 17.1854 43.9098 17.1899 43.9098 17.1944C42.6334 19.3538 40.4236 20.8217 37.8925 21.0507C37.6623 21.0732 37.4323 21.0821 37.1978 21.0821C36.386 21.0821 35.6002 20.9564 34.8621 20.7185C31.6624 19.6904 29.3311 16.6108 29.3311 12.979C29.3311 11.0216 30.004 9.22592 31.1284 7.82526C31.2891 7.62774 31.4584 7.4347 31.6364 7.25062C31.9924 6.8825 32.3831 6.5503 32.7999 6.25851C33.6378 5.67488 34.5886 5.25289 35.6132 5.03741C36.1255 4.92967 36.6551 4.87131 37.1978 4.87131C37.4323 4.87131 37.6623 4.88029 37.8925 4.90274H37.9185C40.2109 5.11821 42.2383 6.35277 43.5451 8.19339C43.5494 8.19786 43.5538 8.20684 43.5538 8.20684C43.6754 8.37744 43.7926 8.55702 43.9011 8.74107C43.9072 8.75203 43.9132 8.76357 43.9195 8.77543C43.9311 8.79748 43.9435 8.82105 43.9575 8.84431C44.0487 9.00146 44.1355 9.15857 44.2137 9.32018C44.2287 9.35132 44.2427 9.38357 44.2567 9.41583L44.2641 9.43278L44.2728 9.45285C44.2818 9.47324 44.291 9.49346 44.3005 9.51324C44.3122 9.53997 44.3239 9.56654 44.3355 9.59304C44.3845 9.70444 44.4329 9.81471 44.4785 9.93074C44.5132 10.0205 44.5437 10.1103 44.574 10.2001C44.5969 10.264 44.6198 10.3292 44.6421 10.3949C44.662 10.4539 44.6815 10.5133 44.6999 10.5727L44.7011 10.5766C44.731 10.683 44.761 10.7895 44.7867 10.8959C44.7942 10.9285 44.8031 10.9602 44.8123 10.9919C44.8247 11.0343 44.8376 11.0766 44.8475 11.1204C44.8503 11.1261 44.8495 11.13 44.8486 11.1344C44.8481 11.1369 44.8475 11.1396 44.8475 11.1428C44.8562 11.1833 44.866 11.2237 44.8758 11.2641C44.8855 11.3045 44.8953 11.3449 44.904 11.3853L44.917 11.4526H41.6435L41.6305 11.4167C41.6305 11.4148 41.6301 11.413 41.6294 11.4114C41.6287 11.4096 41.6277 11.4079 41.6267 11.4063L41.6262 11.4055C41.624 11.4021 41.6218 11.3988 41.6218 11.3943C40.9836 9.49976 39.2427 8.13503 37.1935 8.13503C34.6581 8.13503 32.5959 10.218 32.509 12.8174C32.5047 12.8308 32.5047 12.8488 32.5047 12.8667V13.1091C32.5071 13.1168 32.5082 13.126 32.5087 13.1358C32.5088 13.1389 32.5089 13.1422 32.5089 13.1455L32.509 13.1585C32.6002 15.7578 34.6581 17.8409 37.1935 17.8409C39.247 17.8409 40.9836 16.4761 41.6218 14.5816C41.6218 14.5726 41.6305 14.5592 41.6305 14.5592L41.6435 14.5233L41.6652 14.4559C41.6652 14.4425 41.6739 14.4245 41.6739 14.4245Z" fill="#030712"/>
<path d="M9.53324 5.30414L8.14651 7.87086C7.40928 7.65584 6.48561 7.62325 5.67882 7.85849C5.0896 8.0303 4.56272 8.34496 4.21631 8.83577C4.08842 9.01699 3.98513 9.22223 3.91238 9.45315L0.869363 9.45315C0.959024 9.03735 1.3968 7.38363 2.92136 6.19523C3.24527 5.94274 3.61823 5.71126 4.04734 5.51711C4.83006 5.16298 5.79957 4.93307 6.99886 4.92654C7.85637 4.92654 8.71321 5.03371 9.53325 5.29963L9.53324 5.30414Z" fill="#030712"/>
<path d="M6.44703 18.2797C8.25545 18.2797 10.0769 16.8817 10.0769 14.3194V11.6718H13.2329V14.9488C13.2329 15.4 13.1891 15.8373 13.1047 16.2571C12.5134 19.1958 9.93019 21.2779 6.43834 21.2779C2.51285 21.2779 0.105831 19.0554 0.00339793 16.1889C0.00169649 16.1413 0.000630892 16.0935 0.000204728 16.0456C-0.0299551 12.5293 3.27752 10.5699 6.38617 10.7863V13.4673C4.99443 13.4673 3.11711 14.0196 3.11711 15.8253C3.11711 15.9725 3.12886 16.1109 3.15098 16.2411C3.48265 18.1928 6.14545 18.2797 6.44703 18.2797Z" fill="#030712"/>
<path d="M8.85317 10.1624C8.81967 10.1293 8.79033 10.0917 8.76631 10.0504C8.67023 9.88483 8.67023 9.67885 8.76631 9.51149L11.268 5.19689C11.364 5.02953 11.5433 4.92654 11.7373 4.92654C11.7675 4.92654 11.7974 4.92913 11.8268 4.93414C11.9375 4.95303 12.0403 5.00633 12.1197 5.08483C12.1532 5.11793 12.1826 5.15552 12.2066 5.1969L14.7082 9.51149C14.8043 9.67701 14.8043 9.88484 14.7082 10.0504C14.6224 10.1998 14.4688 10.298 14.3001 10.3172C14.2799 10.3195 14.2595 10.3207 14.2389 10.3207H9.23562C9.2032 10.3207 9.1711 10.3177 9.13967 10.312C9.03137 10.2921 8.93103 10.2394 8.85317 10.1624Z" fill="#030712"/>
</g>
<defs>
<clipPath id="clip0_1172_1310">
<rect width="137" height="21.1371" fill="white" transform="translate(0 0.431396)"/>
</clipPath>
</defs>
</svg>
