<svg width="25" height="25" viewBox="0 0 25 25" fill="none" xmlns="http://www.w3.org/2000/svg">
<path d="M12.7998 16.075C12.6665 16.075 12.5415 16.0543 12.4248 16.013C12.3081 15.9717 12.1998 15.9007 12.0998 15.8L8.4998 12.2C8.2998 12 8.2038 11.7667 8.2118 11.5C8.2198 11.2333 8.3158 11 8.4998 10.8C8.6998 10.6 8.93747 10.496 9.2128 10.488C9.48814 10.48 9.72547 10.5757 9.9248 10.775L11.7998 12.65V5.5C11.7998 5.21667 11.8958 4.97934 12.0878 4.788C12.2798 4.59667 12.5171 4.50067 12.7998 4.5C13.0825 4.49934 13.3201 4.59534 13.5128 4.788C13.7055 4.98067 13.8011 5.218 13.7998 5.5V12.65L15.6748 10.775C15.8748 10.575 16.1125 10.479 16.3878 10.487C16.6631 10.495 16.9005 10.5993 17.0998 10.8C17.2831 11 17.3791 11.2333 17.3878 11.5C17.3965 11.7667 17.3005 12 17.0998 12.2L13.4998 15.8C13.3998 15.9 13.2915 15.971 13.1748 16.013C13.0581 16.055 12.9331 16.0757 12.7998 16.075ZM6.7998 20.5C6.2498 20.5 5.77914 20.3043 5.3878 19.913C4.99647 19.5217 4.80047 19.0507 4.7998 18.5V16.5C4.7998 16.2167 4.8958 15.9793 5.0878 15.788C5.2798 15.5967 5.51714 15.5007 5.7998 15.5C6.08247 15.4993 6.32014 15.5953 6.5128 15.788C6.70547 15.9807 6.80114 16.218 6.7998 16.5V18.5H18.7998V16.5C18.7998 16.2167 18.8958 15.9793 19.0878 15.788C19.2798 15.5967 19.5171 15.5007 19.7998 15.5C20.0825 15.4993 20.3201 15.5953 20.5128 15.788C20.7055 15.9807 20.8011 16.218 20.7998 16.5V18.5C20.7998 19.05 20.6041 19.521 20.2128 19.913C19.8215 20.305 19.3505 20.5007 18.7998 20.5H6.7998Z" fill="#286DB2"/>
</svg>
