<svg width="20" height="20" viewBox="0 0 20 20" fill="none" xmlns="http://www.w3.org/2000/svg">
<path d="M3.33337 6.24996V2.49996C3.33337 2.27895 3.42117 2.06698 3.57745 1.9107C3.73373 1.75442 3.94569 1.66663 4.16671 1.66663H15.8334C16.0544 1.66663 16.2663 1.75442 16.4226 1.9107C16.5789 2.06698 16.6667 2.27895 16.6667 2.49996V17.5C16.6667 17.721 16.5789 17.9329 16.4226 18.0892C16.2663 18.2455 16.0544 18.3333 15.8334 18.3333H4.16671C3.94569 18.3333 3.73373 18.2455 3.57745 18.0892C3.42117 17.9329 3.33337 17.721 3.33337 17.5V13.75" stroke="black" stroke-width="1.25" stroke-linecap="round" stroke-linejoin="round"/>
<path d="M12.9167 6.25H14.1667M11.6667 9.58333H14.1667M11.6667 12.9167H14.1667" stroke="black" stroke-width="1.25" stroke-linecap="round"/>
<path d="M4.16669 8.75L6.66669 11.25M6.66669 8.75L4.16669 11.25M1.66669 6.25H9.16669V13.75H1.66669V6.25Z" stroke="black" stroke-width="1.25" stroke-linecap="round" stroke-linejoin="round"/>
</svg>
