<svg width="24" height="25" viewBox="0 0 24 25" fill="none" xmlns="http://www.w3.org/2000/svg">
<path d="M7 10.5L12 5.5M12 5.5L17 10.5M12 5.5V12" stroke="#286DB2" stroke-width="2"/>
<path fill-rule="evenodd" clip-rule="evenodd" d="M11 13.5V17C11 17.2652 11.1054 17.5196 11.2929 17.7071C11.4804 17.8946 11.7348 18 12 18C12.2652 18 12.5196 17.8946 12.7071 17.7071C12.8946 17.5196 13 17.2652 13 17V13.5H18C18.5304 13.5 19.0391 13.7107 19.4142 14.0858C19.7893 14.4609 20 14.9696 20 15.5V19.5C20 20.0304 19.7893 20.5391 19.4142 20.9142C19.0391 21.2893 18.5304 21.5 18 21.5H6C5.46957 21.5 4.96086 21.2893 4.58579 20.9142C4.21071 20.5391 4 20.0304 4 19.5V15.5C4 14.9696 4.21071 14.4609 4.58579 14.0858C4.96086 13.7107 5.46957 13.5 6 13.5H11Z" fill="#286DB2"/>
</svg>
