<svg width="26" height="26" viewBox="0 0 26 26" fill="none" xmlns="http://www.w3.org/2000/svg">
<path d="M3.25 9.20833V19.2292C3.25 21.1737 4.82633 22.75 6.77083 22.75H19.2292C21.1737 22.75 22.75 21.1737 22.75 19.2292V9.20833H3.25ZM18.1458 16.25C18.8937 16.25 19.5 16.8563 19.5 17.6042C19.5 18.3521 18.8937 18.9583 18.1458 18.9583C17.3979 18.9583 16.7917 18.3521 16.7917 17.6042C16.7917 16.8563 17.3979 16.25 18.1458 16.25ZM13 16.25C13.7479 16.25 14.3542 16.8563 14.3542 17.6042C14.3542 18.3521 13.7479 18.9583 13 18.9583C12.2521 18.9583 11.6458 18.3521 11.6458 17.6042C11.6458 16.8563 12.2521 16.25 13 16.25ZM18.1458 11.375C18.8937 11.375 19.5 11.9813 19.5 12.7292C19.5 13.4771 18.8937 14.0833 18.1458 14.0833C17.3979 14.0833 16.7917 13.4771 16.7917 12.7292C16.7917 11.9813 17.3979 11.375 18.1458 11.375ZM13 11.375C13.7479 11.375 14.3542 11.9813 14.3542 12.7292C14.3542 13.4771 13.7479 14.0833 13 14.0833C12.2521 14.0833 11.6458 13.4771 11.6458 12.7292C11.6458 11.9813 12.2521 11.375 13 11.375ZM7.85417 11.375C8.60205 11.375 9.20833 11.9813 9.20833 12.7292C9.20833 13.4771 8.60205 14.0833 7.85417 14.0833C7.10628 14.0833 6.5 13.4771 6.5 12.7292C6.5 11.9813 7.10628 11.375 7.85417 11.375ZM6.77083 3.25C4.82633 3.25 3.25 4.82633 3.25 6.77083V7.58333H22.75V6.77083C22.75 4.82633 21.1737 3.25 19.2292 3.25H6.77083Z" fill="white"/>
</svg>
