<svg width="129" height="26" viewBox="0 0 129 26" fill="none" xmlns="http://www.w3.org/2000/svg">
<path d="M9.8 6H20V16.9615M9.8 6H5V10.0385M9.8 6V16.9615H20M20 16.9615V21H15.8M15.8 21H5V10.0385M15.8 21V10.0385H5" stroke="#313D4B" stroke-width="1.5"/>
<path fill-rule="evenodd" clip-rule="evenodd" d="M65.4481 20.32C64.3681 20.32 63.3748 20.1467 62.4681 19.8C61.5615 19.44 60.7748 18.94 60.1081 18.3C59.4415 17.6467 58.9215 16.8867 58.5481 16.02C58.1748 15.1533 57.9881 14.2 57.9881 13.16C57.9881 12.12 58.1748 11.1667 58.5481 10.3C58.9215 9.43333 59.4415 8.68 60.1081 8.04C60.7881 7.38667 61.5815 6.88667 62.4881 6.54C63.3948 6.18 64.3948 6 65.4881 6C66.5948 6 67.6081 6.18 68.5281 6.54C69.4481 6.9 70.2281 7.44 70.8681 8.16L69.6281 9.4C69.0548 8.84 68.4281 8.43333 67.7481 8.18C67.0815 7.91333 66.3548 7.78 65.5681 7.78C64.7681 7.78 64.0215 7.91333 63.3281 8.18C62.6481 8.44667 62.0548 8.82 61.5481 9.3C61.0548 9.78 60.6681 10.3533 60.3881 11.02C60.1215 11.6733 59.9881 12.3867 59.9881 13.16C59.9881 13.92 60.1215 14.6333 60.3881 15.3C60.6681 15.9533 61.0548 16.5267 61.5481 17.02C62.0548 17.5 62.6481 17.8733 63.3281 18.14C64.0081 18.4067 64.7481 18.54 65.5481 18.54C66.2948 18.54 67.0081 18.4267 67.6881 18.2C68.0857 18.0624 68.4657 17.8744 68.8281 17.636V15H66V13H68.8281H70.5H70.7481V18.54C70.0548 19.1267 69.2415 19.5733 68.3081 19.88C67.3881 20.1733 66.4348 20.32 65.4481 20.32ZM28 6.16V20.16H37.58V18.42H30V6.16H28ZM46.495 6.16L40.155 20.16H42.215L43.753 16.66H51.197L52.735 20.16H54.835L48.475 6.16H46.495ZM50.4939 15.06L47.475 8.19025L44.4561 15.06H50.4939ZM78.4373 18.74C79.4907 19.7933 80.9373 20.32 82.7773 20.32C84.6307 20.32 86.0773 19.7933 87.1173 18.74C88.1707 17.6867 88.6973 16.1467 88.6973 14.12V6.16H86.7573V14.04C86.7573 15.6 86.4107 16.74 85.7173 17.46C85.0373 18.18 84.064 18.54 82.7973 18.54C81.544 18.54 80.5707 18.18 79.8773 17.46C79.1973 16.74 78.8573 15.6 78.8573 14.04V6.16H76.8573V14.12C76.8573 16.1467 77.384 17.6867 78.4373 18.74ZM95.1977 20.16V6.16H96.8377L105.238 16.592V6.16H107.238V20.16H105.598L97.1977 9.72803V20.16H95.1977ZM118.048 6.16L111.708 20.16H113.768L115.306 16.66H122.75L124.288 20.16H126.388L120.028 6.16H118.048ZM122.047 15.06L119.028 8.19024L116.009 15.06H122.047Z" fill="#313D4B"/>
</svg>
