<svg width="206" height="40" viewBox="0 0 206 40" fill="none" xmlns="http://www.w3.org/2000/svg">
<path d="M15.707 8.81445H32.0547V26.3827M15.707 8.81445H8.01398V15.2869M15.707 8.81445V26.3827H32.0547M32.0547 26.3827V32.8552H25.3233M25.3233 32.8552H8.01398V15.2869M25.3233 32.8552V15.2869H8.01398" stroke="white" stroke-width="2.40407"/>
<path fill-rule="evenodd" clip-rule="evenodd" d="M104.894 31.7653C103.163 31.7653 101.571 31.4875 100.118 30.9319C98.6646 30.3549 97.4038 29.5536 96.3354 28.5278C95.2669 27.4807 94.4335 26.2627 93.8351 24.8736C93.2368 23.4846 92.9376 21.9567 92.9376 20.2899C92.9376 18.6231 93.2368 17.0951 93.8351 15.7061C94.4335 14.3171 95.2669 13.1097 96.3354 12.084C97.4252 11.0369 98.6967 10.2355 100.15 9.67992C101.603 9.10294 103.206 8.81445 104.958 8.81445C106.732 8.81445 108.356 9.10294 109.83 9.67992C111.305 10.2569 112.555 11.1224 113.581 12.2763L111.593 14.2637C110.674 13.3662 109.67 12.7144 108.58 12.3084C107.512 11.881 106.347 11.6673 105.086 11.6673C103.804 11.6673 102.607 11.881 101.496 12.3084C100.406 12.7358 99.4553 13.3341 98.6433 14.1034C97.8526 14.8727 97.2329 15.7916 96.7841 16.8601C96.3567 17.9072 96.143 19.0504 96.143 20.2899C96.143 21.5079 96.3567 22.6512 96.7841 23.7197C97.2329 24.7668 97.8526 25.6857 98.6433 26.4764C99.4553 27.2457 100.406 27.844 101.496 28.2714C102.586 28.6988 103.772 28.9125 105.054 28.9125C106.251 28.9125 107.394 28.7308 108.484 28.3676C109.121 28.147 109.73 27.8457 110.311 27.4635V23.2385H105.779V20.033H112.991V20.0334H113.388V28.9125C112.277 29.8527 110.973 30.5686 109.478 31.0601C108.003 31.5302 106.475 31.7653 104.894 31.7653ZM44.8752 9.07089V31.5089H60.2292V28.7201H48.0807V9.07089H44.8752ZM74.5174 9.07089L64.3562 31.5089H67.6578L70.1229 25.8994H82.0533L84.5184 31.5089H87.8841L77.6908 9.07089H74.5174ZM80.9264 23.335L76.0881 12.3248L71.2497 23.335H80.9264ZM125.712 29.233C127.4 30.9212 129.719 31.7653 132.668 31.7653C135.638 31.7653 137.957 30.9212 139.623 29.233C141.312 27.5448 142.156 25.0766 142.156 21.8285V9.07089H139.046V21.7003C139.046 24.2005 138.491 26.0276 137.38 27.1815C136.29 28.3355 134.73 28.9125 132.7 28.9125C130.691 28.9125 129.131 28.3355 128.02 27.1815C126.93 26.0276 126.385 24.2005 126.385 21.7003V9.07089H123.18V21.8285C123.18 25.0766 124.024 27.5448 125.712 29.233ZM152.574 9.07089H155.202L168.665 25.7903V9.07089H171.87V31.5089H169.242L155.779 14.7894V31.5089H152.574V9.07089ZM192.37 9.07089H189.197L179.035 31.5089H182.337L184.802 25.8994H196.732L199.197 31.5089H202.563L192.37 9.07089ZM195.606 23.335L190.767 12.3248L185.929 23.335H195.606Z" fill="white"/>
</svg>
