<svg width="26" height="26" viewBox="0 0 26 26" fill="none" xmlns="http://www.w3.org/2000/svg">
<path d="M6.49967 23.8332H19.4997C20.0743 23.8332 20.6254 23.6049 21.0317 23.1986C21.4381 22.7922 21.6663 22.2411 21.6663 21.6665V9.74984L16.2497 7.58317L14.083 2.1665H6.49967C5.92504 2.1665 5.37394 2.39478 4.96761 2.80111C4.56128 3.20743 4.33301 3.75853 4.33301 4.33317V21.6665C4.33301 22.2411 4.56128 22.7922 4.96761 23.1986C5.37394 23.6049 5.92504 23.8332 6.49967 23.8332Z" fill="url(#paint0_linear_951_7429)"/>
<path d="M6.49967 23.8332H19.4997C20.0743 23.8332 20.6254 23.6049 21.0317 23.1986C21.4381 22.7922 21.6663 22.2411 21.6663 21.6665V9.74984L16.2497 7.58317L14.083 2.1665H6.49967C5.92504 2.1665 5.37394 2.39478 4.96761 2.80111C4.56128 3.20743 4.33301 3.75853 4.33301 4.33317V21.6665C4.33301 22.2411 4.56128 22.7922 4.96761 23.1986C5.37394 23.6049 5.92504 23.8332 6.49967 23.8332Z" fill="url(#paint1_radial_951_7429)" fill-opacity="0.5"/>
<path d="M14.083 8.12484V2.1665L21.6663 9.74984H15.708C15.277 9.74984 14.8637 9.57863 14.559 9.27389C14.2542 8.96914 14.083 8.55581 14.083 8.12484Z" fill="url(#paint2_linear_951_7429)"/>
<path d="M9.47852 12.458C9.26303 12.458 9.05637 12.5436 8.90399 12.696C8.75162 12.8484 8.66602 13.055 8.66602 13.2705C8.66602 13.486 8.75162 13.6927 8.90399 13.845C9.05637 13.9974 9.26303 14.083 9.47852 14.083H16.5202C16.7357 14.083 16.9423 13.9974 17.0947 13.845C17.2471 13.6927 17.3327 13.486 17.3327 13.2705C17.3327 13.055 17.2471 12.8484 17.0947 12.696C16.9423 12.5436 16.7357 12.458 16.5202 12.458H9.47852ZM9.47852 15.4372C9.26303 15.4372 9.05637 15.5228 8.90399 15.6752C8.75162 15.8275 8.66602 16.0342 8.66602 16.2497C8.66602 16.4652 8.75162 16.6718 8.90399 16.8242C9.05637 16.9766 9.26303 17.0622 9.47852 17.0622H16.5202C16.7357 17.0622 16.9423 16.9766 17.0947 16.8242C17.2471 16.6718 17.3327 16.4652 17.3327 16.2497C17.3327 16.0342 17.2471 15.8275 17.0947 15.6752C16.9423 15.5228 16.7357 15.4372 16.5202 15.4372H9.47852ZM9.47852 18.4163C9.26303 18.4163 9.05637 18.5019 8.90399 18.6543C8.75162 18.8067 8.66602 19.0134 8.66602 19.2288C8.66602 19.4443 8.75162 19.651 8.90399 19.8034C9.05637 19.9557 9.26303 20.0413 9.47852 20.0413H16.5202C16.7357 20.0413 16.9423 19.9557 17.0947 19.8034C17.2471 19.651 17.3327 19.4443 17.3327 19.2288C17.3327 19.0134 17.2471 18.8067 17.0947 18.6543C16.9423 18.5019 16.7357 18.4163 16.5202 18.4163H9.47852Z" fill="url(#paint3_linear_951_7429)" fill-opacity="0.9"/>
<defs>
<linearGradient id="paint0_linear_951_7429" x1="16.4663" y1="2.1665" x2="18.2235" y2="20.4423" gradientUnits="userSpaceOnUse">
<stop stop-color="#9892FF"/>
<stop offset="1" stop-color="#4F46E5"/>
</linearGradient>
<radialGradient id="paint1_radial_951_7429" cx="0" cy="0" r="1" gradientUnits="userSpaceOnUse" gradientTransform="translate(22.3889 2.84359) rotate(133.623) scale(13.6088 8.03504)">
<stop offset="0.362" stop-color="#4A43CB"/>
<stop offset="1" stop-color="#4A43CB" stop-opacity="0"/>
</radialGradient>
<linearGradient id="paint2_linear_951_7429" x1="17.8617" y1="5.32659" x2="15.9658" y2="8.48559" gradientUnits="userSpaceOnUse">
<stop stop-color="#9C97FF"/>
<stop offset="1" stop-color="#C9C6FF"/>
</linearGradient>
<linearGradient id="paint3_linear_951_7429" x1="17.3327" y1="23.0747" x2="8.87835" y2="9.29467" gradientUnits="userSpaceOnUse">
<stop stop-color="#8982FF"/>
<stop offset="1" stop-color="white"/>
</linearGradient>
</defs>
</svg>
