<svg width="24" height="24" viewBox="0 0 24 24" fill="none" xmlns="http://www.w3.org/2000/svg">
<path d="M11.9996 23C13.0996 23 13.9896 22.11 13.9896 21.01H10.0096C10.0096 22.11 10.8996 23 11.9996 23ZM20.2896 18.29L18.9996 17V11C18.9996 7.65 16.6396 4.85 13.4996 4.17V3C13.4996 2.17 12.8296 1.5 11.9996 1.5C11.1696 1.5 10.4996 2.17 10.4996 3V4.17C7.35956 4.85 4.99956 7.65 4.99956 11V17L3.70956 18.29C3.07956 18.92 3.51956 20 4.40956 20H19.5796C20.4796 20 20.9196 18.92 20.2896 18.29Z" fill="#1A1A1E"/>
</svg>
