<svg width="26" height="26" viewBox="0 0 26 26" fill="none" xmlns="http://www.w3.org/2000/svg">
<path d="M14.8958 3.79167H11.1042C10.6554 3.79167 10.2917 4.15544 10.2917 4.60417C10.2917 5.0529 10.6554 5.41667 11.1042 5.41667H14.8958C15.3446 5.41667 15.7083 5.0529 15.7083 4.60417C15.7083 4.15544 15.3446 3.79167 14.8958 3.79167ZM14.8958 2.16667C16.1299 2.16667 17.1497 3.08367 17.3111 4.27342L17.3258 4.42001L17.3184 4.33273L19.2292 4.33334C20.5754 4.33334 21.6667 5.42464 21.6667 6.77084V21.3958C21.6667 22.742 20.5754 23.8333 19.2292 23.8333H6.77084C5.42465 23.8333 4.33334 22.742 4.33334 21.3958V6.77084C4.33334 5.42464 5.42465 4.33334 6.77084 4.33334L8.68162 4.33273L8.67318 4.42001L8.68893 4.27342C8.85033 3.08367 9.87017 2.16667 11.1042 2.16667H14.8958ZM15.1667 18.4167H8.66668C8.21795 18.4167 7.85418 18.7804 7.85418 19.2292C7.85418 19.6779 8.21795 20.0417 8.66668 20.0417H15.1667C15.6154 20.0417 15.9792 19.6779 15.9792 19.2292C15.9792 18.7804 15.6154 18.4167 15.1667 18.4167ZM13 14.0833H8.66668C8.21795 14.0833 7.85418 14.4471 7.85418 14.8958C7.85418 15.3446 8.21795 15.7083 8.66668 15.7083H13C13.4487 15.7083 13.8125 15.3446 13.8125 14.8958C13.8125 14.4471 13.4487 14.0833 13 14.0833ZM17.3333 9.75001H8.66668C8.21795 9.75001 7.85418 10.1138 7.85418 10.5625C7.85418 11.0112 8.21795 11.375 8.66668 11.375H17.3333C17.7821 11.375 18.1458 11.0112 18.1458 10.5625C18.1458 10.1138 17.7821 9.75001 17.3333 9.75001Z" fill="white"/>
</svg>
