<svg width="24" height="24" viewBox="0 0 24 24" fill="none" xmlns="http://www.w3.org/2000/svg">
<path fill-rule="evenodd" clip-rule="evenodd" d="M12 21C16.9706 21 21 16.9706 21 12C21 7.02944 16.9706 3 12 3C7.02944 3 3 7.02944 3 12C3 16.9706 7.02944 21 12 21ZM11.528 7.52414C12.9583 7.37792 14.259 7.90657 15.1768 8.82328L15.5371 8.45772C15.8919 8.10341 16.5 8.35649 16.5 8.85702V10.876C16.5 11.1853 16.2466 11.4384 15.9369 11.4384H13.9155C13.4143 11.4384 13.1666 10.831 13.5213 10.4767L14.3716 9.62751C13.7635 9.01449 12.9301 8.62644 11.9954 8.62644C9.8895 8.62644 8.22843 10.5611 8.70141 12.7432C8.96606 13.9917 9.97396 15.0096 11.224 15.2852C12.8907 15.6564 14.4166 14.7903 15.0529 13.4237C15.143 13.2381 15.3401 13.1256 15.5484 13.1256C15.9651 13.1256 16.2354 13.5587 16.0552 13.9355C15.3344 15.4483 13.7916 16.5 11.9954 16.5C9.33206 16.5 7.22053 14.1998 7.53022 11.4722C7.76108 9.40817 9.46156 7.73223 11.528 7.52414Z" fill="#171717"/>
</svg>
