<svg width="16" height="17" viewBox="0 0 16 17" fill="none" xmlns="http://www.w3.org/2000/svg">
<path d="M8 2C4.41017 2 1.5 4.91017 1.5 8.5C1.5 12.09 4.41017 15 8 15C11.59 15 14.5 12.09 14.5 8.5C14.5 4.91017 11.59 2 8 2ZM8 14.2003C4.86395 14.2003 2.3125 11.636 2.3125 8.49997C2.3125 5.36393 4.86395 2.81247 8 2.81247C11.136 2.81247 13.6875 5.36394 13.6875 8.49997C13.6875 11.636 11.136 14.2003 8 14.2003ZM10.298 6.20205C10.1393 6.04341 9.88216 6.04341 9.72352 6.20205L8 7.92556L6.27648 6.20205C6.11784 6.04341 5.86069 6.04341 5.70184 6.20205C5.5432 6.36069 5.5432 6.61784 5.70184 6.77648L7.42536 8.5L5.70184 10.2235C5.5432 10.382 5.5432 10.6395 5.70184 10.798C5.86048 10.9566 6.11764 10.9566 6.27648 10.798L8 9.07445L9.72352 10.798C9.88216 10.9566 10.1393 10.9566 10.298 10.798C10.4566 10.6395 10.4566 10.382 10.298 10.2235L8.57444 8.5L10.298 6.77648C10.4568 6.61764 10.4568 6.36048 10.298 6.20205Z" fill="#B91C1C"/>
</svg>
