<svg width="81" height="81" viewBox="0 0 81 81" fill="none" xmlns="http://www.w3.org/2000/svg">
<rect x="0.5" y="0.5" width="80" height="80" rx="20" fill="#286DB2" fill-opacity="0.1"/>
<path d="M41.125 13.5C48.319 13.5 55.2183 16.3578 60.3053 21.4447C65.3922 26.5317 68.25 33.431 68.25 40.625C68.25 47.819 65.3922 54.7183 60.3053 59.8053C55.2183 64.8922 48.319 67.75 41.125 67.75C33.931 67.75 27.0317 64.8922 21.9447 59.8053C16.8578 54.7183 14 47.819 14 40.625C14 33.431 16.8578 26.5317 21.9447 21.4447C27.0317 16.3578 33.931 13.5 41.125 13.5ZM37.746 45.9764L31.7204 39.9469C31.5044 39.7309 31.2479 39.5595 30.9657 39.4426C30.6834 39.3257 30.3809 39.2655 30.0754 39.2655C29.7699 39.2655 29.4674 39.3257 29.1852 39.4426C28.903 39.5595 28.6465 39.7309 28.4305 39.9469C27.9942 40.3831 27.7491 40.9748 27.7491 41.5918C27.7491 42.2088 27.9942 42.8005 28.4305 43.2367L36.103 50.9093C36.3184 51.1264 36.5746 51.2987 36.857 51.4163C37.1393 51.5339 37.4421 51.5944 37.7479 51.5944C38.0538 51.5944 38.3566 51.5339 38.6389 51.4163C38.9212 51.2987 39.1775 51.1264 39.3929 50.9093L55.2804 35.0179C55.4993 34.8028 55.6734 34.5464 55.7928 34.2637C55.9121 33.9809 55.9743 33.6773 55.9757 33.3704C55.9771 33.0635 55.9178 32.7593 55.8011 32.4755C55.6844 32.1916 55.5126 31.9337 55.2957 31.7165C55.0788 31.4994 54.8211 31.3273 54.5374 31.2103C54.2537 31.0932 53.9496 31.0335 53.6427 31.0346C53.3358 31.0357 53.0321 31.0975 52.7492 31.2165C52.4663 31.3355 52.2098 31.5094 51.9944 31.728L37.746 45.9764Z" fill="#286DB2"/>
</svg>
