<svg width="21" height="20" viewBox="0 0 21 20" fill="none" xmlns="http://www.w3.org/2000/svg">
<path d="M17.6001 1H15.6001C15.3349 1 15.0805 1.10536 14.893 1.29289C14.7055 1.48043 14.6001 1.73478 14.6001 2V18.992H18.6001V2C18.6001 1.73478 18.4947 1.48043 18.3072 1.29289C18.1197 1.10536 17.8653 1 17.6001 1ZM11.6001 7H9.6001C9.33488 7 9.08053 7.10536 8.89299 7.29289C8.70545 7.48043 8.6001 7.73478 8.6001 8V18.992H12.6001V8C12.6001 7.73478 12.4947 7.48043 12.3072 7.29289C12.1197 7.10536 11.8653 7 11.6001 7ZM5.6001 13H3.6001C3.33488 13 3.08053 13.1054 2.89299 13.2929C2.70545 13.4804 2.6001 13.7348 2.6001 14V18.992H6.6001V14C6.6001 13.7348 6.49474 13.4804 6.3072 13.2929C6.11967 13.1054 5.86531 13 5.6001 13Z" fill="black"/>
</svg>
