<svg width="17" height="16" viewBox="0 0 17 16" fill="none" xmlns="http://www.w3.org/2000/svg">
<path d="M15.8001 8.00003V12C15.8001 12.1326 15.7474 12.2598 15.6536 12.3536C15.5599 12.4474 15.4327 12.5 15.3001 12.5H11.3001C11.1675 12.5 11.0403 12.4474 10.9465 12.3536C10.8528 12.2598 10.8001 12.1326 10.8001 12C10.8001 11.8674 10.8528 11.7402 10.9465 11.6465C11.0403 11.5527 11.1675 11.5 11.3001 11.5H14.0932L9.30008 6.70691L7.15383 8.85378C7.1074 8.90027 7.05225 8.93715 6.99155 8.96231C6.93085 8.98748 6.86579 9.00043 6.80008 9.00043C6.73438 9.00043 6.66931 8.98748 6.60861 8.96231C6.54791 8.93715 6.49277 8.90027 6.44633 8.85378L1.94633 4.35378C1.85251 4.25996 1.7998 4.13272 1.7998 4.00003C1.7998 3.86735 1.85251 3.7401 1.94633 3.64628C2.04015 3.55246 2.1674 3.49976 2.30008 3.49976C2.43276 3.49976 2.56001 3.55246 2.65383 3.64628L6.80008 7.79316L8.94633 5.64628C8.99277 5.5998 9.04791 5.56292 9.10861 5.53775C9.16931 5.51259 9.23438 5.49964 9.30008 5.49964C9.36579 5.49964 9.43085 5.51259 9.49155 5.53775C9.55225 5.56292 9.6074 5.5998 9.65383 5.64628L14.8001 10.7932V8.00003C14.8001 7.86743 14.8528 7.74025 14.9465 7.64648C15.0403 7.55271 15.1675 7.50003 15.3001 7.50003C15.4327 7.50003 15.5599 7.55271 15.6536 7.64648C15.7474 7.74025 15.8001 7.86743 15.8001 8.00003Z" fill="#DC2626"/>
</svg>
