<svg width="17" height="16" viewBox="0 0 17 16" fill="none" xmlns="http://www.w3.org/2000/svg">
<path d="M15.4007 3.5V7.5C15.4007 7.63261 15.348 7.75979 15.2542 7.85355C15.1605 7.94732 15.0333 8 14.9007 8C14.7681 8 14.6409 7.94732 14.5471 7.85355C14.4533 7.75979 14.4007 7.63261 14.4007 7.5V4.70687L9.25442 9.85375C9.20798 9.90024 9.15284 9.93712 9.09214 9.96228C9.03144 9.98744 8.96638 10.0004 8.90067 10.0004C8.83496 10.0004 8.7699 9.98744 8.7092 9.96228C8.6485 9.93712 8.59335 9.90024 8.54692 9.85375L6.40067 7.70687L2.25442 11.8538C2.1606 11.9476 2.03335 12.0003 1.90067 12.0003C1.76799 12.0003 1.64074 11.9476 1.54692 11.8538C1.4531 11.7599 1.40039 11.6327 1.40039 11.5C1.40039 11.3673 1.4531 11.2401 1.54692 11.1462L6.04692 6.64625C6.09335 6.59976 6.1485 6.56288 6.2092 6.53772C6.2699 6.51256 6.33496 6.49961 6.40067 6.49961C6.46638 6.49961 6.53144 6.51256 6.59214 6.53772C6.65284 6.56288 6.70798 6.59976 6.75442 6.64625L8.90067 8.79313L13.6938 4H10.9007C10.7681 4 10.6409 3.94732 10.5471 3.85355C10.4533 3.75979 10.4007 3.63261 10.4007 3.5C10.4007 3.36739 10.4533 3.24021 10.5471 3.14645C10.6409 3.05268 10.7681 3 10.9007 3H14.9007C15.0333 3 15.1605 3.05268 15.2542 3.14645C15.348 3.24021 15.4007 3.36739 15.4007 3.5Z" fill="#047857"/>
</svg>
