<svg width="25" height="24" viewBox="0 0 25 24" fill="none" xmlns="http://www.w3.org/2000/svg">
<path d="M12.2002 4C13.2611 4 14.2785 4.42143 15.0286 5.17157C15.7788 5.92172 16.2002 6.93913 16.2002 8C16.2002 9.06087 15.7788 10.0783 15.0286 10.8284C14.2785 11.5786 13.2611 12 12.2002 12C11.1393 12 10.1219 11.5786 9.37177 10.8284C8.62162 10.0783 8.2002 9.06087 8.2002 8C8.2002 6.93913 8.62162 5.92172 9.37177 5.17157C10.1219 4.42143 11.1393 4 12.2002 4ZM12.2002 14C16.6202 14 20.2002 15.79 20.2002 18V20H4.2002V18C4.2002 15.79 7.7802 14 12.2002 14Z" fill="black"/>
</svg>
