<svg width="24" height="24" viewBox="0 0 24 24" fill="none" xmlns="http://www.w3.org/2000/svg">
<path d="M8.25 3C8.25 2.80109 8.17098 2.61032 8.03033 2.46967C7.88968 2.32902 7.69891 2.25 7.5 2.25C7.30109 2.25 7.11032 2.32902 6.96967 2.46967C6.82902 2.61032 6.75 2.80109 6.75 3V3.301L6.715 3.304C6.005 3.358 5.406 3.473 4.859 3.736C3.97451 4.15688 3.24551 4.84633 2.776 5.706C2.489 6.238 2.366 6.819 2.307 7.499C2.25 8.161 2.25 8.981 2.25 10.009V14.99C2.25 16.019 2.25 16.84 2.307 17.501C2.367 18.181 2.489 18.762 2.776 19.293C3.24535 20.153 3.97436 20.8429 4.859 21.264C5.406 21.527 6.005 21.642 6.715 21.696C7.411 21.75 8.275 21.75 9.369 21.75H14.631C15.725 21.75 16.589 21.75 17.285 21.696C17.995 21.641 18.594 21.527 19.141 21.264C20.0255 20.8431 20.7545 20.1537 21.224 19.294C21.511 18.762 21.634 18.181 21.693 17.501C21.75 16.839 21.75 16.019 21.75 14.991V10.01C21.75 8.981 21.75 8.16 21.693 7.499C21.633 6.819 21.511 6.238 21.224 5.707C20.7547 4.84696 20.0256 4.15714 19.141 3.736C18.594 3.473 17.995 3.358 17.285 3.304L17.25 3.3V3C17.25 2.80109 17.171 2.61032 17.0303 2.46967C16.8897 2.32902 16.6989 2.25 16.5 2.25C16.3011 2.25 16.1103 2.32902 15.9697 2.46967C15.829 2.61032 15.75 2.80109 15.75 3V3.253C15.4067 3.25033 15.0337 3.24933 14.631 3.25H9.37C8.96733 3.25 8.59433 3.251 8.251 3.253L8.25 3ZM5.51 5.088C5.804 4.946 6.173 4.856 6.75 4.806V5C6.75 5.19891 6.82902 5.38968 6.96967 5.53033C7.11032 5.67098 7.30109 5.75 7.5 5.75C7.69891 5.75 7.88968 5.67098 8.03033 5.53033C8.17098 5.38968 8.25 5.19891 8.25 5V4.753C8.63333 4.75054 9.01666 4.74954 9.4 4.75H14.6C15.026 4.75 15.4093 4.751 15.75 4.753V5C15.75 5.19891 15.829 5.38968 15.9697 5.53033C16.1103 5.67098 16.3011 5.75 16.5 5.75C16.6989 5.75 16.8897 5.67098 17.0303 5.53033C17.171 5.38968 17.25 5.19891 17.25 5V4.806C17.827 4.856 18.196 4.946 18.49 5.088C19.0896 5.37143 19.5844 5.83687 19.904 6.418C20.018 6.63 20.1 6.884 20.154 7.25H3.846C3.901 6.884 3.983 6.63 4.097 6.419C4.41614 5.83765 4.91063 5.37186 5.51 5.088ZM12.546 10.986L15.046 13.639C15.1136 13.7107 15.1663 13.795 15.2013 13.8871C15.2363 13.9792 15.2528 14.0773 15.2499 14.1758C15.247 14.2743 15.2247 14.3712 15.1843 14.461C15.1439 14.5509 15.0862 14.6319 15.0145 14.6995C14.9428 14.7671 14.8585 14.8198 14.7664 14.8548C14.6743 14.8898 14.5762 14.9063 14.4777 14.9034C14.3792 14.9005 14.2823 14.8782 14.1925 14.8378C14.1026 14.7974 14.0216 14.7397 13.954 14.668L12.751 13.39L12.753 17.5C12.753 17.6989 12.674 17.8897 12.5333 18.0303C12.3927 18.171 12.2019 18.25 12.003 18.25C11.8041 18.25 11.6133 18.171 11.4727 18.0303C11.332 17.8897 11.253 17.6989 11.253 17.5L11.251 13.39L10.046 14.668C9.90955 14.8128 9.72116 14.8975 9.52227 14.9034C9.32339 14.9093 9.13031 14.836 8.9855 14.6995C8.84069 14.563 8.75602 14.3747 8.75011 14.1758C8.74421 13.9769 8.81755 13.7838 8.954 13.639L11.454 10.986C11.5241 10.9115 11.6087 10.8522 11.7026 10.8117C11.7965 10.7711 11.8977 10.7502 12 10.7502C12.1023 10.7502 12.2035 10.7711 12.2974 10.8117C12.3913 10.8522 12.4759 10.9115 12.546 10.986Z" fill="#286DB2"/>
</svg>
